<?xml version="1.0" encoding="UTF-8"?>
<!DOCTYPE svg PUBLIC "-//W3C//DTD SVG 1.1//EN" "http://www.w3.org/Graphics/SVG/1.1/DTD/svg11.dtd">
<svg width="116mm" height="90mm" viewBox="0 0 11600 9000" version="1.1" xmlns="http://www.w3.org/2000/svg" stroke-width="28.222" stroke-linejoin="round" xml:space="preserve">
 <path fill="rgb(255,255,255)" stroke="none" d="M 5817,8999 L 0,8999 0,0 11634,0 11634,8999 5817,8999 Z"/>
 <path fill="none" stroke="rgb(179,179,179)" stroke-linejoin="round" d="M 7289,6804 L 3177,6804 3177,1474 11402,1474 11402,6804 7289,6804 Z"/>
 <path fill="none" stroke="rgb(179,179,179)" stroke-linejoin="round" d="M 11402,6803 L 3177,6803"/>
 <path fill="none" stroke="rgb(179,179,179)" stroke-linejoin="round" d="M 11402,6041 L 3177,6041"/>
 <path fill="none" stroke="rgb(179,179,179)" stroke-linejoin="round" d="M 11402,5279 L 3177,5279"/>
 <path fill="none" stroke="rgb(179,179,179)" stroke-linejoin="round" d="M 11402,4518 L 3177,4518"/>
 <path fill="none" stroke="rgb(179,179,179)" stroke-linejoin="round" d="M 11402,3757 L 3177,3757"/>
 <path fill="none" stroke="rgb(179,179,179)" stroke-linejoin="round" d="M 11402,2996 L 3177,2996"/>
 <path fill="none" stroke="rgb(179,179,179)" stroke-linejoin="round" d="M 11402,2234 L 3177,2234"/>
 <path fill="none" stroke="rgb(179,179,179)" stroke-linejoin="round" d="M 11402,1473 L 3177,1473"/>
 <path fill="none" stroke="rgb(179,179,179)" stroke-linejoin="round" d="M 3177,6953 L 3177,6803"/>
 <path fill="none" stroke="rgb(179,179,179)" stroke-linejoin="round" d="M 3177,6953 L 3177,6803"/>
 <path fill="none" stroke="rgb(179,179,179)" stroke-linejoin="round" d="M 5233,6953 L 5233,6803"/>
 <path fill="none" stroke="rgb(179,179,179)" stroke-linejoin="round" d="M 5233,6953 L 5233,6803"/>
 <path fill="none" stroke="rgb(179,179,179)" stroke-linejoin="round" d="M 7289,6953 L 7289,6803"/>
 <path fill="none" stroke="rgb(179,179,179)" stroke-linejoin="round" d="M 7289,6953 L 7289,6803"/>
 <path fill="none" stroke="rgb(179,179,179)" stroke-linejoin="round" d="M 9345,6953 L 9345,6803"/>
 <path fill="none" stroke="rgb(179,179,179)" stroke-linejoin="round" d="M 9345,6953 L 9345,6803"/>
 <path fill="none" stroke="rgb(179,179,179)" stroke-linejoin="round" d="M 11402,6953 L 11402,6803"/>
 <path fill="none" stroke="rgb(179,179,179)" stroke-linejoin="round" d="M 11402,6953 L 11402,6803"/>
 <path fill="none" stroke="rgb(179,179,179)" stroke-linejoin="round" d="M 3177,6803 L 11402,6803"/>
 <path fill="none" stroke="rgb(179,179,179)" stroke-linejoin="round" d="M 3027,6803 L 3177,6803"/>
 <path fill="none" stroke="rgb(179,179,179)" stroke-linejoin="round" d="M 3027,6803 L 3177,6803"/>
 <path fill="none" stroke="rgb(179,179,179)" stroke-linejoin="round" d="M 3027,6041 L 3177,6041"/>
 <path fill="none" stroke="rgb(179,179,179)" stroke-linejoin="round" d="M 3027,6041 L 3177,6041"/>
 <path fill="none" stroke="rgb(179,179,179)" stroke-linejoin="round" d="M 3027,5279 L 3177,5279"/>
 <path fill="none" stroke="rgb(179,179,179)" stroke-linejoin="round" d="M 3027,5279 L 3177,5279"/>
 <path fill="none" stroke="rgb(179,179,179)" stroke-linejoin="round" d="M 3027,4518 L 3177,4518"/>
 <path fill="none" stroke="rgb(179,179,179)" stroke-linejoin="round" d="M 3027,4518 L 3177,4518"/>
 <path fill="none" stroke="rgb(179,179,179)" stroke-linejoin="round" d="M 3027,3757 L 3177,3757"/>
 <path fill="none" stroke="rgb(179,179,179)" stroke-linejoin="round" d="M 3027,3757 L 3177,3757"/>
 <path fill="none" stroke="rgb(179,179,179)" stroke-linejoin="round" d="M 3027,2996 L 3177,2996"/>
 <path fill="none" stroke="rgb(179,179,179)" stroke-linejoin="round" d="M 3027,2996 L 3177,2996"/>
 <path fill="none" stroke="rgb(179,179,179)" stroke-linejoin="round" d="M 3027,2234 L 3177,2234"/>
 <path fill="none" stroke="rgb(179,179,179)" stroke-linejoin="round" d="M 3027,2234 L 3177,2234"/>
 <path fill="none" stroke="rgb(179,179,179)" stroke-linejoin="round" d="M 3027,1473 L 3177,1473"/>
 <path fill="none" stroke="rgb(179,179,179)" stroke-linejoin="round" d="M 3027,1473 L 3177,1473"/>
 <path fill="none" stroke="rgb(179,179,179)" stroke-linejoin="round" d="M 3177,6803 L 3177,1473"/>
 <path fill="rgb(0,69,134)" stroke="none" d="M 9859,6803 L 10887,6803 10887,3586 9859,3586 9859,6803 Z"/>
 <path fill="rgb(0,69,134)" stroke="none" d="M 7803,6803 L 8831,6803 8831,3764 7803,3764 7803,6803 Z"/>
 <path fill="rgb(0,69,134)" stroke="none" d="M 5747,6803 L 6774,6803 6774,3596 5747,3596 5747,6803 Z"/>
 <path fill="rgb(0,69,134)" stroke="none" d="M 3691,6803 L 4719,6803 4719,1786 3691,1786 3691,6803 Z"/>
 <text class="TextShape"><tspan class="TextParagraph" font-family="Liberation Sans, sans-serif" font-size="353px" font-weight="400"><tspan class="TextPosition" x="3980" y="7371"><tspan fill="rgb(0,0,0)" stroke="none">O0</tspan></tspan></tspan></text>
 <text class="TextShape"><tspan class="TextParagraph" font-family="Liberation Sans, sans-serif" font-size="353px" font-weight="400"><tspan class="TextPosition" x="6036" y="7371"><tspan fill="rgb(0,0,0)" stroke="none">O1</tspan></tspan></tspan></text>
 <text class="TextShape"><tspan class="TextParagraph" font-family="Liberation Sans, sans-serif" font-size="353px" font-weight="400"><tspan class="TextPosition" x="8093" y="7371"><tspan fill="rgb(0,0,0)" stroke="none">O2</tspan></tspan></tspan></text>
 <text class="TextShape"><tspan class="TextParagraph" font-family="Liberation Sans, sans-serif" font-size="353px" font-weight="400"><tspan class="TextPosition" x="10149" y="7371"><tspan fill="rgb(0,0,0)" stroke="none">O3</tspan></tspan></tspan></text>
 <text class="TextShape"><tspan class="TextParagraph" font-family="Liberation Sans, sans-serif" font-size="353px" font-weight="400"><tspan class="TextPosition" x="2742" y="6924"><tspan fill="rgb(0,0,0)" stroke="none">0</tspan></tspan></tspan></text>
 <text class="TextShape"><tspan class="TextParagraph" font-family="Liberation Sans, sans-serif" font-size="353px" font-weight="400"><tspan class="TextPosition" x="1816" y="6162"><tspan fill="rgb(0,0,0)" stroke="none">500000</tspan></tspan></tspan></text>
 <text class="TextShape"><tspan class="TextParagraph" font-family="Liberation Sans, sans-serif" font-size="353px" font-weight="400"><tspan class="TextPosition" x="1631" y="5400"><tspan fill="rgb(0,0,0)" stroke="none">1000000</tspan></tspan></tspan></text>
 <text class="TextShape"><tspan class="TextParagraph" font-family="Liberation Sans, sans-serif" font-size="353px" font-weight="400"><tspan class="TextPosition" x="1631" y="4639"><tspan fill="rgb(0,0,0)" stroke="none">1500000</tspan></tspan></tspan></text>
 <text class="TextShape"><tspan class="TextParagraph" font-family="Liberation Sans, sans-serif" font-size="353px" font-weight="400"><tspan class="TextPosition" x="1631" y="3877"><tspan fill="rgb(0,0,0)" stroke="none">2000000</tspan></tspan></tspan></text>
 <text class="TextShape"><tspan class="TextParagraph" font-family="Liberation Sans, sans-serif" font-size="353px" font-weight="400"><tspan class="TextPosition" x="1631" y="3116"><tspan fill="rgb(0,0,0)" stroke="none">2500000</tspan></tspan></tspan></text>
 <text class="TextShape"><tspan class="TextParagraph" font-family="Liberation Sans, sans-serif" font-size="353px" font-weight="400"><tspan class="TextPosition" x="1631" y="2354"><tspan fill="rgb(0,0,0)" stroke="none">3000000</tspan></tspan></tspan></text>
 <text class="TextShape"><tspan class="TextParagraph" font-family="Liberation Sans, sans-serif" font-size="353px" font-weight="400"><tspan class="TextPosition" x="1631" y="1593"><tspan fill="rgb(0,0,0)" stroke="none">3500000</tspan></tspan></tspan></text>
 <text class="TextShape"><tspan class="TextParagraph" font-family="Liberation Sans, sans-serif" font-size="459px" font-weight="700"><tspan class="TextPosition" x="4732" y="851"><tspan fill="rgb(0,0,0)" stroke="none">Quick sort</tspan></tspan></tspan></text>
 <text class="TextShape"><tspan class="TextParagraph" font-family="Liberation Sans, sans-serif" font-size="564px" font-weight="400"><tspan class="TextPosition" x="3764" y="8305"><tspan fill="rgb(0,0,0)" stroke="none">Уровень оптимизации</tspan></tspan></tspan></text>
 <text class="TextShape" transform="translate(1123,6095) rotate(-90) translate(-1123,-6095)"><tspan class="TextParagraph" font-family="Liberation Sans, sans-serif" font-size="564px" font-weight="400"><tspan class="TextPosition" x="1123" y="6095"><tspan fill="rgb(0,0,0)" stroke="none">Кол-во тактов</tspan></tspan></tspan></text>
</svg>