<?xml version="1.0" encoding="UTF-8"?>
<!DOCTYPE svg PUBLIC "-//W3C//DTD SVG 1.1//EN" "http://www.w3.org/Graphics/SVG/1.1/DTD/svg11.dtd">
<svg width="119mm" height="90mm" viewBox="0 0 11900 9000" version="1.1" xmlns="http://www.w3.org/2000/svg" stroke-width="28.222" stroke-linejoin="round" xml:space="preserve">
 <path fill="rgb(255,255,255)" stroke="none" d="M 5937,9005 L 0,9005 0,0 11873,0 11873,9005 5937,9005 Z"/>
 <path fill="none" stroke="rgb(179,179,179)" stroke-linejoin="round" d="M 7594,6857 L 3553,6857 3553,1474 11636,1474 11636,6857 7594,6857 Z"/>
 <path fill="none" stroke="rgb(179,179,179)" stroke-linejoin="round" d="M 11636,6856 L 3553,6856"/>
 <path fill="none" stroke="rgb(179,179,179)" stroke-linejoin="round" d="M 11636,6257 L 3553,6257"/>
 <path fill="none" stroke="rgb(179,179,179)" stroke-linejoin="round" d="M 11636,5659 L 3553,5659"/>
 <path fill="none" stroke="rgb(179,179,179)" stroke-linejoin="round" d="M 11636,5061 L 3553,5061"/>
 <path fill="none" stroke="rgb(179,179,179)" stroke-linejoin="round" d="M 11636,4464 L 3553,4464"/>
 <path fill="none" stroke="rgb(179,179,179)" stroke-linejoin="round" d="M 11636,3865 L 3553,3865"/>
 <path fill="none" stroke="rgb(179,179,179)" stroke-linejoin="round" d="M 11636,3267 L 3553,3267"/>
 <path fill="none" stroke="rgb(179,179,179)" stroke-linejoin="round" d="M 11636,2669 L 3553,2669"/>
 <path fill="none" stroke="rgb(179,179,179)" stroke-linejoin="round" d="M 11636,2071 L 3553,2071"/>
 <path fill="none" stroke="rgb(179,179,179)" stroke-linejoin="round" d="M 11636,1473 L 3553,1473"/>
 <path fill="none" stroke="rgb(179,179,179)" stroke-linejoin="round" d="M 3553,7006 L 3553,6856"/>
 <path fill="none" stroke="rgb(179,179,179)" stroke-linejoin="round" d="M 3553,7006 L 3553,6856"/>
 <path fill="none" stroke="rgb(179,179,179)" stroke-linejoin="round" d="M 5574,7006 L 5574,6856"/>
 <path fill="none" stroke="rgb(179,179,179)" stroke-linejoin="round" d="M 5574,7006 L 5574,6856"/>
 <path fill="none" stroke="rgb(179,179,179)" stroke-linejoin="round" d="M 7594,7006 L 7594,6856"/>
 <path fill="none" stroke="rgb(179,179,179)" stroke-linejoin="round" d="M 7594,7006 L 7594,6856"/>
 <path fill="none" stroke="rgb(179,179,179)" stroke-linejoin="round" d="M 9615,7006 L 9615,6856"/>
 <path fill="none" stroke="rgb(179,179,179)" stroke-linejoin="round" d="M 9615,7006 L 9615,6856"/>
 <path fill="none" stroke="rgb(179,179,179)" stroke-linejoin="round" d="M 11636,7006 L 11636,6856"/>
 <path fill="none" stroke="rgb(179,179,179)" stroke-linejoin="round" d="M 11636,7006 L 11636,6856"/>
 <path fill="none" stroke="rgb(179,179,179)" stroke-linejoin="round" d="M 3553,6856 L 11636,6856"/>
 <path fill="none" stroke="rgb(179,179,179)" stroke-linejoin="round" d="M 3403,6856 L 3553,6856"/>
 <path fill="none" stroke="rgb(179,179,179)" stroke-linejoin="round" d="M 3403,6856 L 3553,6856"/>
 <path fill="none" stroke="rgb(179,179,179)" stroke-linejoin="round" d="M 3403,6257 L 3553,6257"/>
 <path fill="none" stroke="rgb(179,179,179)" stroke-linejoin="round" d="M 3403,6257 L 3553,6257"/>
 <path fill="none" stroke="rgb(179,179,179)" stroke-linejoin="round" d="M 3403,5659 L 3553,5659"/>
 <path fill="none" stroke="rgb(179,179,179)" stroke-linejoin="round" d="M 3403,5659 L 3553,5659"/>
 <path fill="none" stroke="rgb(179,179,179)" stroke-linejoin="round" d="M 3403,5061 L 3553,5061"/>
 <path fill="none" stroke="rgb(179,179,179)" stroke-linejoin="round" d="M 3403,5061 L 3553,5061"/>
 <path fill="none" stroke="rgb(179,179,179)" stroke-linejoin="round" d="M 3403,4464 L 3553,4464"/>
 <path fill="none" stroke="rgb(179,179,179)" stroke-linejoin="round" d="M 3403,4464 L 3553,4464"/>
 <path fill="none" stroke="rgb(179,179,179)" stroke-linejoin="round" d="M 3403,3865 L 3553,3865"/>
 <path fill="none" stroke="rgb(179,179,179)" stroke-linejoin="round" d="M 3403,3865 L 3553,3865"/>
 <path fill="none" stroke="rgb(179,179,179)" stroke-linejoin="round" d="M 3403,3267 L 3553,3267"/>
 <path fill="none" stroke="rgb(179,179,179)" stroke-linejoin="round" d="M 3403,3267 L 3553,3267"/>
 <path fill="none" stroke="rgb(179,179,179)" stroke-linejoin="round" d="M 3403,2669 L 3553,2669"/>
 <path fill="none" stroke="rgb(179,179,179)" stroke-linejoin="round" d="M 3403,2669 L 3553,2669"/>
 <path fill="none" stroke="rgb(179,179,179)" stroke-linejoin="round" d="M 3403,2071 L 3553,2071"/>
 <path fill="none" stroke="rgb(179,179,179)" stroke-linejoin="round" d="M 3403,2071 L 3553,2071"/>
 <path fill="none" stroke="rgb(179,179,179)" stroke-linejoin="round" d="M 3403,1473 L 3553,1473"/>
 <path fill="none" stroke="rgb(179,179,179)" stroke-linejoin="round" d="M 3403,1473 L 3553,1473"/>
 <path fill="none" stroke="rgb(179,179,179)" stroke-linejoin="round" d="M 3553,6856 L 3553,1473"/>
 <path fill="rgb(0,69,134)" stroke="none" d="M 10120,6856 L 11130,6856 11130,5092 10120,5092 10120,6856 Z"/>
 <path fill="rgb(0,69,134)" stroke="none" d="M 8099,6856 L 9109,6856 9109,5081 8099,5081 8099,6856 Z"/>
 <path fill="rgb(0,69,134)" stroke="none" d="M 6078,6856 L 7088,6856 7088,5371 6078,5371 6078,6856 Z"/>
 <path fill="rgb(0,69,134)" stroke="none" d="M 4058,6856 L 5068,6856 5068,2099 4058,2099 4058,6856 Z"/>
 <text class="TextShape"><tspan class="TextParagraph" font-family="Liberation Sans, sans-serif" font-size="353px" font-weight="400"><tspan class="TextPosition" x="4338" y="7424"><tspan fill="rgb(0,0,0)" stroke="none">O0</tspan></tspan></tspan></text>
 <text class="TextShape"><tspan class="TextParagraph" font-family="Liberation Sans, sans-serif" font-size="353px" font-weight="400"><tspan class="TextPosition" x="6359" y="7424"><tspan fill="rgb(0,0,0)" stroke="none">O1</tspan></tspan></tspan></text>
 <text class="TextShape"><tspan class="TextParagraph" font-family="Liberation Sans, sans-serif" font-size="353px" font-weight="400"><tspan class="TextPosition" x="8380" y="7424"><tspan fill="rgb(0,0,0)" stroke="none">O2</tspan></tspan></tspan></text>
 <text class="TextShape"><tspan class="TextParagraph" font-family="Liberation Sans, sans-serif" font-size="353px" font-weight="400"><tspan class="TextPosition" x="10401" y="7424"><tspan fill="rgb(0,0,0)" stroke="none">O3</tspan></tspan></tspan></text>
 <text class="TextShape"><tspan class="TextParagraph" font-family="Liberation Sans, sans-serif" font-size="353px" font-weight="400"><tspan class="TextPosition" x="3118" y="6977"><tspan fill="rgb(0,0,0)" stroke="none">0</tspan></tspan></tspan></text>
 <text class="TextShape"><tspan class="TextParagraph" font-family="Liberation Sans, sans-serif" font-size="353px" font-weight="400"><tspan class="TextPosition" x="1636" y="6378"><tspan fill="rgb(0,0,0)" stroke="none">100000000</tspan></tspan></tspan></text>
 <text class="TextShape"><tspan class="TextParagraph" font-family="Liberation Sans, sans-serif" font-size="353px" font-weight="400"><tspan class="TextPosition" x="1636" y="5780"><tspan fill="rgb(0,0,0)" stroke="none">200000000</tspan></tspan></tspan></text>
 <text class="TextShape"><tspan class="TextParagraph" font-family="Liberation Sans, sans-serif" font-size="353px" font-weight="400"><tspan class="TextPosition" x="1636" y="5182"><tspan fill="rgb(0,0,0)" stroke="none">300000000</tspan></tspan></tspan></text>
 <text class="TextShape"><tspan class="TextParagraph" font-family="Liberation Sans, sans-serif" font-size="353px" font-weight="400"><tspan class="TextPosition" x="1636" y="4584"><tspan fill="rgb(0,0,0)" stroke="none">400000000</tspan></tspan></tspan></text>
 <text class="TextShape"><tspan class="TextParagraph" font-family="Liberation Sans, sans-serif" font-size="353px" font-weight="400"><tspan class="TextPosition" x="1636" y="3985"><tspan fill="rgb(0,0,0)" stroke="none">500000000</tspan></tspan></tspan></text>
 <text class="TextShape"><tspan class="TextParagraph" font-family="Liberation Sans, sans-serif" font-size="353px" font-weight="400"><tspan class="TextPosition" x="1636" y="3387"><tspan fill="rgb(0,0,0)" stroke="none">600000000</tspan></tspan></tspan></text>
 <text class="TextShape"><tspan class="TextParagraph" font-family="Liberation Sans, sans-serif" font-size="353px" font-weight="400"><tspan class="TextPosition" x="1636" y="2789"><tspan fill="rgb(0,0,0)" stroke="none">700000000</tspan></tspan></tspan></text>
 <text class="TextShape"><tspan class="TextParagraph" font-family="Liberation Sans, sans-serif" font-size="353px" font-weight="400"><tspan class="TextPosition" x="1636" y="2191"><tspan fill="rgb(0,0,0)" stroke="none">800000000</tspan></tspan></tspan></text>
 <text class="TextShape"><tspan class="TextParagraph" font-family="Liberation Sans, sans-serif" font-size="353px" font-weight="400"><tspan class="TextPosition" x="1636" y="1593"><tspan fill="rgb(0,0,0)" stroke="none">900000000</tspan></tspan></tspan></text>
 <text class="TextShape"><tspan class="TextParagraph" font-family="Liberation Sans, sans-serif" font-size="459px" font-weight="700"><tspan class="TextPosition" x="3397" y="851"><tspan fill="rgb(0,0,0)" stroke="none">Сортировка пузырьком</tspan></tspan></tspan></text>
 <text class="TextShape"><tspan class="TextParagraph" font-family="Liberation Sans, sans-serif" font-size="529px" font-weight="400"><tspan class="TextPosition" x="4043" y="8320"><tspan fill="rgb(0,0,0)" stroke="none">Уровень оптимизации</tspan></tspan></tspan></text>
 <text class="TextShape" transform="translate(1123,6122) rotate(-90) translate(-1123,-6122)"><tspan class="TextParagraph" font-family="Liberation Sans, sans-serif" font-size="564px" font-weight="400"><tspan class="TextPosition" x="1123" y="6122"><tspan fill="rgb(0,0,0)" stroke="none">Кол-во тактов</tspan></tspan></tspan></text>
</svg>