<?xml version="1.0" encoding="UTF-8" standalone="no"?>
<!DOCTYPE svg PUBLIC "-//W3C//DTD SVG 1.1//EN"
 "http://www.w3.org/Graphics/SVG/1.1/DTD/svg11.dtd">
<!-- Generated by graphviz version 2.38.0 (20140413.2041)
 -->
<!-- Title: test.c.210t.optimized Pages: 1 -->
<svg width="342pt" height="655pt"
 viewBox="0.00 0.00 342.00 655.00" xmlns="http://www.w3.org/2000/svg" xmlns:xlink="http://www.w3.org/1999/xlink">
<g id="graph0" class="graph" transform="scale(1 1) rotate(0) translate(4 651)">
<title>test.c.210t.optimized</title>
<polygon fill="white" stroke="none" points="-4,4 -4,-651 338,-651 338,4 -4,4"/>
<g id="clust1" class="cluster"><title>cluster_foo</title>
<polygon fill="none" stroke="black" stroke-dasharray="5,2" points="8,-8 8,-639 326,-639 326,-8 8,-8"/>
<text text-anchor="middle" x="167" y="-623.8" font-family="Times New Roman,serif" font-size="14.00">foo ()</text>
</g>
<!-- fn_0_basic_block_0 -->
<g id="node1" class="node"><title>fn_0_basic_block_0</title>
<polygon fill="white" stroke="black" points="100,-608 42.186,-590 100,-572 157.814,-590 100,-608"/>
<polyline fill="none" stroke="black" points="53.6436,-593.567 53.6436,-586.433 "/>
<polyline fill="none" stroke="black" points="88.5425,-575.567 111.458,-575.567 "/>
<polyline fill="none" stroke="black" points="146.356,-586.433 146.356,-593.567 "/>
<polyline fill="none" stroke="black" points="111.458,-604.433 88.5425,-604.433 "/>
<text text-anchor="middle" x="100" y="-586.3" font-family="Times New Roman,serif" font-size="14.00">ENTRY</text>
</g>
<!-- fn_0_basic_block_1 -->
<g id="node2" class="node"><title>fn_0_basic_block_1</title>
<polygon fill="white" stroke="black" points="134,-52 89.7606,-34 134,-16 178.239,-34 134,-52"/>
<polyline fill="none" stroke="black" points="100.876,-38.5225 100.876,-29.4775 "/>
<polyline fill="none" stroke="black" points="122.885,-20.5225 145.115,-20.5225 "/>
<polyline fill="none" stroke="black" points="167.124,-29.4775 167.124,-38.5225 "/>
<polyline fill="none" stroke="black" points="145.115,-47.4775 122.885,-47.4775 "/>
<text text-anchor="middle" x="134" y="-30.3" font-family="Times New Roman,serif" font-size="14.00">EXIT</text>
</g>
<!-- fn_0_basic_block_0&#45;&gt;fn_0_basic_block_1 -->
<!-- fn_0_basic_block_2 -->
<g id="node3" class="node"><title>fn_0_basic_block_2</title>
<polygon fill="lightgrey" stroke="black" points="50.5,-406.5 50.5,-520.5 149.5,-520.5 149.5,-406.5 50.5,-406.5"/>
<text text-anchor="middle" x="100" y="-505.3" font-family="Times New Roman,serif" font-size="14.00">FREQ:10000</text>
<polyline fill="none" stroke="black" points="50.5,-497.5 149.5,-497.5 "/>
<text text-anchor="start" x="58.5" y="-482.3" font-family="Times New Roman,serif" font-size="14.00">&lt;bb 2&gt;:</text>
<polyline fill="none" stroke="black" points="50.5,-474.5 149.5,-474.5 "/>
<text text-anchor="start" x="58.5" y="-459.3" font-family="Times New Roman,serif" font-size="14.00">if (x_3(D) &lt; 0)</text>
<text text-anchor="start" x="58.5" y="-444.3" font-family="Times New Roman,serif" font-size="14.00"> &#160;goto &lt;bb 3&gt;;</text>
<text text-anchor="start" x="58.5" y="-429.3" font-family="Times New Roman,serif" font-size="14.00">else</text>
<text text-anchor="start" x="58.5" y="-414.3" font-family="Times New Roman,serif" font-size="14.00"> &#160;goto &lt;bb 4&gt;;</text>
</g>
<!-- fn_0_basic_block_0&#45;&gt;fn_0_basic_block_2 -->
<g id="edge1" class="edge"><title>fn_0_basic_block_0:s&#45;&gt;fn_0_basic_block_2:n</title>
<path fill="none" stroke="blue" stroke-width="2" d="M100,-572C100,-553.229 100,-546.117 100,-531.354"/>
<polygon fill="blue" stroke="blue" stroke-width="2" points="103.5,-531 100,-521 96.5001,-531 103.5,-531"/>
<text text-anchor="middle" x="122" y="-542.8" font-family="Times New Roman,serif" font-size="14.00">[100%]</text>
</g>
<!-- fn_0_basic_block_3 -->
<g id="node4" class="node"><title>fn_0_basic_block_3</title>
<polygon fill="lightgrey" stroke="black" points="36,-270.5 36,-354.5 164,-354.5 164,-270.5 36,-270.5"/>
<text text-anchor="middle" x="100" y="-339.3" font-family="Times New Roman,serif" font-size="14.00">FREQ:9000</text>
<polyline fill="none" stroke="black" points="36,-331.5 164,-331.5 "/>
<text text-anchor="start" x="44" y="-316.3" font-family="Times New Roman,serif" font-size="14.00">&lt;bb 3&gt;:</text>
<polyline fill="none" stroke="black" points="36,-308.5 164,-308.5 "/>
<text text-anchor="start" x="44" y="-293.3" font-family="Times New Roman,serif" font-size="14.00">x_9 = bar (x_3(D));</text>
<text text-anchor="start" x="44" y="-278.3" font-family="Times New Roman,serif" font-size="14.00">goto &lt;bb 5&gt;;</text>
</g>
<!-- fn_0_basic_block_2&#45;&gt;fn_0_basic_block_3 -->
<g id="edge2" class="edge"><title>fn_0_basic_block_2:s&#45;&gt;fn_0_basic_block_3:n</title>
<path fill="none" stroke="black" stroke-width="2" d="M100,-406C100,-387.229 100,-380.117 100,-365.354"/>
<polygon fill="black" stroke="black" stroke-width="2" points="103.5,-365 100,-355 96.5001,-365 103.5,-365"/>
<text text-anchor="middle" x="118.5" y="-376.8" font-family="Times New Roman,serif" font-size="14.00">[90%]</text>
</g>
<!-- fn_0_basic_block_4 -->
<g id="node5" class="node"><title>fn_0_basic_block_4</title>
<polygon fill="lightgrey" stroke="black" points="182,-278 182,-347 318,-347 318,-278 182,-278"/>
<text text-anchor="middle" x="250" y="-331.8" font-family="Times New Roman,serif" font-size="14.00">FREQ:1000</text>
<polyline fill="none" stroke="black" points="182,-324 318,-324 "/>
<text text-anchor="start" x="190" y="-308.8" font-family="Times New Roman,serif" font-size="14.00">&lt;bb 4&gt;:</text>
<polyline fill="none" stroke="black" points="182,-301 318,-301 "/>
<text text-anchor="start" x="190" y="-285.8" font-family="Times New Roman,serif" font-size="14.00">x_11 = baz (x_3(D));</text>
</g>
<!-- fn_0_basic_block_2&#45;&gt;fn_0_basic_block_4 -->
<g id="edge3" class="edge"><title>fn_0_basic_block_2:s&#45;&gt;fn_0_basic_block_4:n</title>
<path fill="none" stroke="black" stroke-width="2" d="M100,-406C100,-398.365 209.774,-368.244 241.506,-354.11"/>
<polygon fill="black" stroke="black" stroke-width="2" points="243.584,-356.931 250,-348.5 239.727,-351.09 243.584,-356.931"/>
<text text-anchor="middle" x="200.5" y="-376.8" font-family="Times New Roman,serif" font-size="14.00">[10%]</text>
</g>
<!-- fn_0_basic_block_5 -->
<g id="node6" class="node"><title>fn_0_basic_block_5</title>
<polygon fill="lightgrey" stroke="black" points="36.5,-103.5 36.5,-218.5 231.5,-218.5 231.5,-103.5 36.5,-103.5"/>
<text text-anchor="middle" x="134" y="-203.3" font-family="Times New Roman,serif" font-size="14.00">FREQ:10000</text>
<polyline fill="none" stroke="black" points="36.5,-195.5 231.5,-195.5 "/>
<text text-anchor="start" x="44.5" y="-180.3" font-family="Times New Roman,serif" font-size="14.00">&lt;bb 5&gt;:</text>
<polyline fill="none" stroke="black" points="36.5,-172.5 231.5,-172.5 "/>
<text text-anchor="start" x="44.5" y="-157.3" font-family="Times New Roman,serif" font-size="14.00"># x_1 = PHI &lt;x_9(3), x_11(4)&gt;</text>
<polyline fill="none" stroke="black" points="36.5,-149.5 231.5,-149.5 "/>
<text text-anchor="start" x="44.5" y="-134.3" font-family="Times New Roman,serif" font-size="14.00">_12 = x_1 + 5;</text>
<polyline fill="none" stroke="black" points="36.5,-126.5 231.5,-126.5 "/>
<text text-anchor="start" x="44.5" y="-111.3" font-family="Times New Roman,serif" font-size="14.00">return _12;</text>
</g>
<!-- fn_0_basic_block_3&#45;&gt;fn_0_basic_block_5 -->
<g id="edge4" class="edge"><title>fn_0_basic_block_3:s&#45;&gt;fn_0_basic_block_5:n</title>
<path fill="none" stroke="blue" stroke-width="2" d="M100,-270C100,-246.589 125.11,-245.87 132.172,-228.841"/>
<polygon fill="blue" stroke="blue" stroke-width="2" points="135.615,-229.471 134,-219 128.732,-228.193 135.615,-229.471"/>
<text text-anchor="middle" x="146" y="-240.8" font-family="Times New Roman,serif" font-size="14.00">[100%]</text>
</g>
<!-- fn_0_basic_block_4&#45;&gt;fn_0_basic_block_5 -->
<g id="edge5" class="edge"><title>fn_0_basic_block_4:s&#45;&gt;fn_0_basic_block_5:n</title>
<path fill="none" stroke="blue" stroke-width="2" d="M250,-276.5C250,-237.245 206.206,-254.364 171,-237 158.699,-230.933 144.037,-234.128 137.475,-228.39"/>
<polygon fill="blue" stroke="blue" stroke-width="2" points="140.753,-227.164 134,-219 134.188,-229.593 140.753,-227.164"/>
<text text-anchor="middle" x="256" y="-240.8" font-family="Times New Roman,serif" font-size="14.00">[100%]</text>
</g>
<!-- fn_0_basic_block_5&#45;&gt;fn_0_basic_block_1 -->
<g id="edge6" class="edge"><title>fn_0_basic_block_5:s&#45;&gt;fn_0_basic_block_1:n</title>
<path fill="none" stroke="black" stroke-width="2" d="M134,-103C134,-84.2292 134,-77.1168 134,-62.3535"/>
<polygon fill="black" stroke="black" stroke-width="2" points="137.5,-62 134,-52 130.5,-62 137.5,-62"/>
<text text-anchor="middle" x="155" y="-73.8" font-family="Times New Roman,serif" font-size="14.00">[100%]</text>
</g>
</g>
</svg>
