<?xml version="1.0" encoding="UTF-8" standalone="no"?>
<!DOCTYPE svg PUBLIC "-//W3C//DTD SVG 1.1//EN"
 "http://www.w3.org/Graphics/SVG/1.1/DTD/svg11.dtd">
<!-- Generated by graphviz version 2.38.0 (20140413.2041)
 -->
<!-- Title: Call graph Pages: 1 -->
<svg width="541pt" height="264pt"
 viewBox="0.00 0.00 541.00 264.00" xmlns="http://www.w3.org/2000/svg" xmlns:xlink="http://www.w3.org/1999/xlink">
<g id="graph0" class="graph" transform="scale(1 1) rotate(0) translate(4 260)">
<title>Call graph</title>
<polygon fill="white" stroke="none" points="-4,4 -4,-260 537,-260 537,4 -4,4"/>
<!-- Node0x5618ba765eb0 -->
<g id="node1" class="node"><title>Node0x5618ba765eb0</title>
<polygon fill="none" stroke="black" points="124.5,-219.5 124.5,-255.5 178.5,-255.5 178.5,-219.5 124.5,-219.5"/>
<text text-anchor="middle" x="151.5" y="-233.8" font-family="Times New Roman,serif" font-size="14.00">sum</text>
</g>
<!-- Node0x5618ba76a380 -->
<g id="node2" class="node"><title>Node0x5618ba76a380</title>
<polygon fill="none" stroke="black" points="6.5,-146.5 6.5,-182.5 94.5,-182.5 94.5,-146.5 6.5,-146.5"/>
<text text-anchor="middle" x="50.5" y="-160.8" font-family="Times New Roman,serif" font-size="14.00">vector::begin</text>
</g>
<!-- Node0x5618ba765eb0&#45;&gt;Node0x5618ba76a380 -->
<g id="edge1" class="edge"><title>Node0x5618ba765eb0&#45;&gt;Node0x5618ba76a380</title>
<path fill="none" stroke="black" d="M127.308,-219.494C114.163,-210.253 97.7175,-198.692 83.4204,-188.642"/>
<polygon fill="black" stroke="black" points="85.0384,-185.501 74.8447,-182.614 81.0127,-191.228 85.0384,-185.501"/>
</g>
<!-- Node0x5618ba76a420 -->
<g id="node3" class="node"><title>Node0x5618ba76a420</title>
<polygon fill="none" stroke="black" points="112.5,-146.5 112.5,-182.5 190.5,-182.5 190.5,-146.5 112.5,-146.5"/>
<text text-anchor="middle" x="151.5" y="-160.8" font-family="Times New Roman,serif" font-size="14.00">vector::end</text>
</g>
<!-- Node0x5618ba765eb0&#45;&gt;Node0x5618ba76a420 -->
<g id="edge2" class="edge"><title>Node0x5618ba765eb0&#45;&gt;Node0x5618ba76a420</title>
<path fill="none" stroke="black" d="M151.5,-219.313C151.5,-211.289 151.5,-201.547 151.5,-192.569"/>
<polygon fill="black" stroke="black" points="155,-192.529 151.5,-182.529 148,-192.529 155,-192.529"/>
</g>
<!-- Node0x5618ba76a3b0 -->
<g id="node4" class="node"><title>Node0x5618ba76a3b0</title>
<polygon fill="none" stroke="black" points="250,-146.5 250,-182.5 329,-182.5 329,-146.5 250,-146.5"/>
<text text-anchor="middle" x="289.5" y="-160.8" font-family="Times New Roman,serif" font-size="14.00">accumulate</text>
</g>
<!-- Node0x5618ba765eb0&#45;&gt;Node0x5618ba76a3b0 -->
<g id="edge3" class="edge"><title>Node0x5618ba765eb0&#45;&gt;Node0x5618ba76a3b0</title>
<path fill="none" stroke="black" d="M178.764,-222.473C198.371,-212.385 225.18,-198.592 247.508,-187.105"/>
<polygon fill="black" stroke="black" points="249.16,-190.191 256.451,-182.503 245.958,-183.966 249.16,-190.191"/>
</g>
<!-- Node0x5618ba77d110 -->
<g id="node5" class="node"><title>Node0x5618ba77d110</title>
<polygon fill="none" stroke="black" points="0,-73.5 0,-109.5 101,-109.5 101,-73.5 0,-73.5"/>
<text text-anchor="middle" x="50.5" y="-87.8" font-family="Times New Roman,serif" font-size="14.00">iterator::iterator</text>
</g>
<!-- Node0x5618ba76a380&#45;&gt;Node0x5618ba77d110 -->
<g id="edge4" class="edge"><title>Node0x5618ba76a380&#45;&gt;Node0x5618ba77d110</title>
<path fill="none" stroke="black" d="M50.5,-146.313C50.5,-138.289 50.5,-128.547 50.5,-119.569"/>
<polygon fill="black" stroke="black" points="54.0001,-119.529 50.5,-109.529 47.0001,-119.529 54.0001,-119.529"/>
</g>
<!-- Node0x5618ba76a420&#45;&gt;Node0x5618ba77d110 -->
<g id="edge5" class="edge"><title>Node0x5618ba76a420&#45;&gt;Node0x5618ba77d110</title>
<path fill="none" stroke="black" d="M127.308,-146.494C114.163,-137.253 97.7175,-125.692 83.4204,-115.642"/>
<polygon fill="black" stroke="black" points="85.0384,-112.501 74.8447,-109.614 81.0127,-118.228 85.0384,-112.501"/>
</g>
<!-- Node0x5618ba76a310 -->
<g id="node6" class="node"><title>Node0x5618ba76a310</title>
<polygon fill="none" stroke="black" points="119.5,-73.5 119.5,-109.5 255.5,-109.5 255.5,-73.5 119.5,-73.5"/>
<text text-anchor="middle" x="187.5" y="-87.8" font-family="Times New Roman,serif" font-size="14.00">operator!= &lt;iterator&gt;</text>
</g>
<!-- Node0x5618ba76a3b0&#45;&gt;Node0x5618ba76a310 -->
<g id="edge6" class="edge"><title>Node0x5618ba76a3b0&#45;&gt;Node0x5618ba76a310</title>
<path fill="none" stroke="black" d="M265.068,-146.494C251.668,-137.166 234.871,-125.474 220.338,-115.358"/>
<polygon fill="black" stroke="black" points="222.293,-112.454 212.086,-109.614 218.294,-118.199 222.293,-112.454"/>
</g>
<!-- Node0x5618ba77cef0 -->
<g id="node7" class="node"><title>Node0x5618ba77cef0</title>
<polygon fill="none" stroke="black" points="273.5,-73.5 273.5,-109.5 389.5,-109.5 389.5,-73.5 273.5,-73.5"/>
<text text-anchor="middle" x="331.5" y="-87.8" font-family="Times New Roman,serif" font-size="14.00">iterator::operator*</text>
</g>
<!-- Node0x5618ba76a3b0&#45;&gt;Node0x5618ba77cef0 -->
<g id="edge7" class="edge"><title>Node0x5618ba76a3b0&#45;&gt;Node0x5618ba77cef0</title>
<path fill="none" stroke="black" d="M299.667,-146.313C304.62,-137.941 310.679,-127.697 316.177,-118.403"/>
<polygon fill="black" stroke="black" points="319.348,-119.918 321.427,-109.529 313.323,-116.354 319.348,-119.918"/>
</g>
<!-- Node0x5618ba777230 -->
<g id="node8" class="node"><title>Node0x5618ba777230</title>
<polygon fill="none" stroke="black" points="408,-73.5 408,-109.5 533,-109.5 533,-73.5 408,-73.5"/>
<text text-anchor="middle" x="470.5" y="-87.8" font-family="Times New Roman,serif" font-size="14.00">iterator::operator++</text>
</g>
<!-- Node0x5618ba76a3b0&#45;&gt;Node0x5618ba777230 -->
<g id="edge8" class="edge"><title>Node0x5618ba76a3b0&#45;&gt;Node0x5618ba777230</title>
<path fill="none" stroke="black" d="M329.221,-147.919C355.213,-137.723 389.466,-124.287 417.735,-113.198"/>
<polygon fill="black" stroke="black" points="419.041,-116.445 427.072,-109.535 416.485,-109.929 419.041,-116.445"/>
</g>
<!-- Node0x5618ba77d2b0 -->
<g id="node9" class="node"><title>Node0x5618ba77d2b0</title>
<polygon fill="none" stroke="black" points="144,-0.5 144,-36.5 231,-36.5 231,-0.5 144,-0.5"/>
<text text-anchor="middle" x="187.5" y="-14.8" font-family="Times New Roman,serif" font-size="14.00">iterator::base</text>
</g>
<!-- Node0x5618ba76a310&#45;&gt;Node0x5618ba77d2b0 -->
<g id="edge9" class="edge"><title>Node0x5618ba76a310&#45;&gt;Node0x5618ba77d2b0</title>
<path fill="none" stroke="black" d="M181.622,-73.3129C180.782,-65.2895 180.549,-55.5475 180.922,-46.5691"/>
<polygon fill="black" stroke="black" points="184.418,-46.7526 181.638,-36.5288 177.436,-46.2544 184.418,-46.7526"/>
</g>
<!-- Node0x5618ba76a310&#45;&gt;Node0x5618ba77d2b0 -->
<g id="edge10" class="edge"><title>Node0x5618ba76a310&#45;&gt;Node0x5618ba77d2b0</title>
<path fill="none" stroke="black" d="M193.378,-73.3129C194.218,-65.2895 194.451,-55.5475 194.078,-46.5691"/>
<polygon fill="black" stroke="black" points="197.564,-46.2544 193.362,-36.5288 190.582,-46.7526 197.564,-46.2544"/>
</g>
</g>
</svg>
